<svg width="65" height="70" viewBox="0 0 65 70" fill="none" xmlns="http://www.w3.org/2000/svg">
    <path d="M24 57.0804C9 61.5804 9 49.5804 3 48.0804M45 66.0804V54.4704C45.1125 53.0399 44.9193 51.6018 44.433 50.2518C43.9468 48.9017 43.1788 47.6706 42.18 46.6404C51.6 45.5904 61.5 42.0204 61.5 25.6404C61.4992 21.4519 59.8881 17.424 57 14.3904C58.3676 10.7259 58.2709 6.67543 56.73 3.08038C56.73 3.08038 53.19 2.03038 45 7.52038C38.124 5.65684 30.876 5.65684 24 7.52038C15.81 2.03038 12.27 3.08038 12.27 3.08038C10.7291 6.67543 10.6324 10.7259 12 14.3904C9.09038 17.4465 7.47757 21.5108 7.5 25.7304C7.5 41.9904 17.4 45.5604 26.82 46.7304C25.833 47.7503 25.0718 48.9666 24.5859 50.3001C24.1001 51.6337 23.9004 53.0546 24 54.4704V66.0804" stroke="gray" stroke-width="6" stroke-linecap="round" stroke-linejoin="round"/>
</svg>
